<?xml version="1.0" encoding="utf-8"?>
<!-- Generator: Adobe Illustrator 15.1.0, SVG Export Plug-In . SVG Version: 6.00 Build 0)  -->
<!DOCTYPE svg PUBLIC "-//W3C//DTD SVG 1.1//EN" "http://www.w3.org/Graphics/SVG/1.1/DTD/svg11.dtd">
<svg version="1.1" id="Calque_1" xmlns="http://www.w3.org/2000/svg" xmlns:xlink="http://www.w3.org/1999/xlink" x="0px" y="0px"
	 width="595.279px" height="841.89px" viewBox="0 0 595.279 841.89" enable-background="new 0 0 595.279 841.89"
	 xml:space="preserve">
<g id="Calque_2">
	<polygon fill="#FF9B92" stroke="#000000" stroke-miterlimit="10" points="214.5,376 214.25,345.75 253.833,340.833 259.5,370 	"/>
	<path fill="none" stroke="#000000" stroke-miterlimit="10" d="M264.833,293.333c0,0,2.667,8.667,9.667,9.667"/>
	<path fill="none" stroke="#000000" stroke-miterlimit="10" d="M268.667,300.5c0,0,13,34.5-34.167,41
		c-39.75,5.478-40.167-29.667-40.167-29.667"/>
	<path fill="none" stroke="#000000" stroke-miterlimit="10" d="M190.333,314.667c11.5-7.333,8.833-21.667,8.833-21.667
		s3.019,3.046,11,2.5c31.667-2.167,33.667-26.333,33.667-26.333s5.5,25.333,30.667,23.333"/>
	<path fill="none" stroke="#000000" stroke-miterlimit="10" d="M261.833,280.167"/>
	<path fill="none" stroke="#000000" stroke-miterlimit="10" d="M217.167,304"/>
	<polygon fill="#FFFFFF" stroke="#000000" stroke-miterlimit="10" points="214.5,376 259.5,370 270.309,399.75 205.75,407 	"/>
	<path fill="none" stroke="#000000" stroke-miterlimit="10" d="M214.25,345.75"/>
	<path fill="#FFFFFF" stroke="#000000" stroke-miterlimit="10" d="M217.875,346.062l0.438,35.188c0,0,4.75-0.312,4.812-0.5
		c0.062-0.188,0-35,0-35L217.875,346.062z"/>
	<polygon fill="#FFFFFF" stroke="#000000" stroke-miterlimit="10" points="247.167,342.667 248.5,378 253.5,377.333 252.167,342 	
		"/>
	<ellipse fill="#FF9B92" stroke="#000000" stroke-miterlimit="10" cx="208.542" cy="307.396" rx="3" ry="3.229"/>
	<path fill="#FF9B92" stroke="#000000" stroke-miterlimit="10" d="M254.583,303.583c0.083,4.5,5.299,2.917,5.25,0.5
		C259.75,300,254.511,299.667,254.583,303.583z"/>
</g>
</svg>
